<?xml version="1.0" encoding="utf-8"?>
<!-- Generator: Adobe Illustrator 17.0.0, SVG Export Plug-In . SVG Version: 6.00 Build 0)  -->
<!DOCTYPE svg PUBLIC "-//W3C//DTD SVG 1.1//EN" "http://www.w3.org/Graphics/SVG/1.1/DTD/svg11.dtd">
<svg version="1.1" id="Layer_1" xmlns="http://www.w3.org/2000/svg" xmlns:xlink="http://www.w3.org/1999/xlink" x="0px" y="0px"
	 width="1300px" height="3213px" viewBox="0 0 1300 3213" enable-background="new 0 0 1300 3213" xml:space="preserve">
<ellipse opacity="0.1" fill="#12ADA9" cx="1189.62" cy="2027.01" rx="348.83" ry="18.88"/>
<path fill="#33C18E" d="M1469.21,1958.18c0,0,5.49,7.19-2.54,18c-8.03,10.81-14.65,20-12,26.77c0,0,12.11-20.15,22-20.43
	C1486.56,1982.24,1480.05,1970.3,1469.21,1958.18z"/>
<path opacity="0.1" enable-background="new    " d="M1469.21,1958.18c0.474,0.696,0.85,1.453,1.12,2.25
	c9.62,11.31,14.74,21.86,5.5,22.12c-8.62,0.25-18.95,15.65-21.42,19.54c0.078,0.302,0.175,0.599,0.29,0.89c0,0,12.11-20.15,22-20.43
	C1486.59,1982.27,1480.05,1970.3,1469.21,1958.18z"/>
<path fill="#FFD037" d="M1479.42,1967.34c0,2.53-0.28,4.58-0.63,4.58s-0.64-2.05-0.64-4.58s0.36-1.34,0.71-1.34
	C1479.21,1966,1479.42,1964.81,1479.42,1967.34z"/>
<path fill="#FFD037" d="M1482.92,1970.36c-2.22,1.21-4.15,1.94-4.32,1.63c-0.17-0.31,1.5-1.54,3.72-2.75c2.22-1.21,1.34-0.33,1.51,0
	C1484,1969.57,1485.14,1969.15,1482.92,1970.36z"/>
<path fill="#33C18E" d="M1440.19,1958.18c0,0-5.49,7.19,2.54,18c8.03,10.81,14.64,20,12,26.77c0,0-12.12-20.15-22-20.43
	C1422.85,1982.24,1429.34,1970.3,1440.19,1958.18z"/>
<path opacity="0.1" enable-background="new    " d="M1440.19,1958.18c-0.478,0.693-0.855,1.451-1.12,2.25
	c-9.62,11.31-14.75,21.86-5.5,22.12c8.61,0.25,19,15.65,21.42,19.54c-0.08,0.3-0.18,0.59-0.29,0.89c0,0-12.12-20.15-22-20.43
	C1422.82,1982.27,1429.34,1970.3,1440.19,1958.18z"/>
<path fill="#FFD037" d="M1429.98,1967.34c0,2.53,0.28,4.58,0.63,4.58s0.64-2.05,0.64-4.58s-0.36-1.34-0.71-1.34
	C1430.19,1966,1429.98,1964.81,1429.98,1967.34z"/>
<path fill="#FFD037" d="M1426.47,1970.36c2.22,1.21,4.16,1.94,4.33,1.63c0.17-0.31-1.5-1.54-3.72-2.75c-2.22-1.21-1.34-0.33-1.51,0
	C1425.4,1969.57,1424.25,1969.15,1426.47,1970.36z"/>
<path fill="#A8A8A8" d="M1431.73,2002.04c0,0,15.36-0.48,20-3.77s23.63-7.24,24.78-2s23.08,26.29,5.74,26.43
	c-17.34,0.14-40.29-2.7-44.91-5.51C1432.72,2014.38,1431.73,2002.04,1431.73,2002.04z"/>
<path opacity="0.2" enable-background="new    " d="M1482.55,2020.91c-17.34,0.14-40.29-2.7-44.91-5.51
	c-3.52-2.15-4.92-9.84-5.39-13.38h-0.51c0,0,1,12.38,5.59,15.2c4.59,2.82,27.57,5.65,44.91,5.51c5,0,6.74-1.82,6.64-4.46
	C1488.18,2019.89,1486.27,2020.88,1482.55,2020.91z"/>
<path fill="#33C18E" d="M945.23,2008.66c1.835-1.498,3.174-3.516,3.84-5.79c0.49-2.29-0.49-5-2.68-5.89
	c-2.46-0.94-5.09,0.77-7.09,2.49s-4.27,3.69-6.88,3.32c2.73-2.472,3.961-6.198,3.24-9.81c-0.114-0.736-0.425-1.427-0.9-2
	c-1.37-1.46-3.84-0.84-5.48,0.31c-5.2,3.66-6.65,10.73-6.68,17.08c-0.52-2.29-0.08-4.68-0.09-7c-0.01-2.32-0.66-5-2.64-6.23
	c-1.229-0.656-2.608-0.98-4-0.94c-2.34-0.09-4.94,0.15-6.54,1.85c-2,2.13-1.47,5.69,0.26,8c1.73,2.31,4.35,3.81,6.76,5.42
	c1.94,1.153,3.594,2.729,4.84,4.61c0.142,0.267,0.262,0.544,0.36,0.83h14.65C939.478,2013.243,942.516,2011.141,945.23,2008.66z"/>
<path fill="none" stroke="#535461" stroke-width="2" stroke-miterlimit="10" d="M828.8,2024.44c0,0-14.06-47.71,2.63-82.82
	c7.105-14.685,9.252-31.28,6.12-47.29c-1.545-7.583-3.785-15.007-6.69-22.18"/>
<path fill="#6C63FF" d="M841.21,1849.95c0,5.85-10.58,22.81-10.58,22.81s-10.59-17-10.59-22.81c0.18-5.846,5.065-10.439,10.91-10.26
	C836.544,1839.862,841.038,1844.357,841.21,1849.95z"/>
<path fill="#6C63FF" d="M858.71,1882.34c-3.17,4.91-21.28,13.39-21.28,13.39s0.33-20,3.51-24.9c3.313-4.82,9.906-6.041,14.726-2.727
	C860.299,1871.288,861.636,1877.539,858.71,1882.34z"/>
<path fill="#6C63FF" d="M857.95,1937.69c-5.22,2.63-25.13,0.81-25.13,0.81s10.38-17.09,15.6-19.72
	c5.168-2.738,11.578-0.767,14.315,4.402c2.738,5.168,0.767,11.578-4.402,14.315C858.207,1937.564,858.079,1937.628,857.95,1937.69z"
	/>
<path fill="#6C63FF" d="M847.94,1979.44c-4.7,3.48-24.63,5-24.63,5s7.34-18.59,12-22.07c4.523-3.708,11.196-3.047,14.904,1.477
	c3.708,4.523,3.047,11.196-1.477,14.904c-0.269,0.22-0.548,0.427-0.837,0.62L847.94,1979.44z"/>
<path fill="#6C63FF" d="M815.21,1896.86c4.19,4.07,23.73,8.3,23.73,8.3s-4.79-19.41-9-23.49c-4.09-4.18-10.795-4.254-14.976-0.163
	s-4.254,10.795-0.163,14.976c0.126,0.129,0.256,0.255,0.389,0.378H815.21z"/>
<path fill="#6C63FF" d="M804.12,1945.83c5.22,2.63,25.13,0.81,25.13,0.81s-10.38-17.08-15.6-19.72
	c-5.275-2.526-11.599-0.297-14.125,4.978C797.072,1937.023,799.099,1943.171,804.12,1945.83z"/>
<path fill="#6C63FF" d="M799.88,1994.91c4.7,3.47,24.62,5,24.62,5s-7.33-18.59-12-22.07c-4.866-3.246-11.441-1.932-14.686,2.933
	c-3.022,4.531-2.115,10.614,2.096,14.067L799.88,1994.91z"/>
<path fill="#33C18E" d="M841.21,1849.95c0,5.85-10.58,22.81-10.58,22.81s-10.59-17-10.59-22.81c0.18-5.846,5.065-10.439,10.91-10.26
	C836.544,1839.862,841.038,1844.357,841.21,1849.95z"/>
<path fill="#33C18E" d="M858.71,1882.34c-3.17,4.91-21.28,13.39-21.28,13.39s0.33-20,3.51-24.9c3.313-4.82,9.906-6.041,14.726-2.727
	C860.299,1871.288,861.636,1877.539,858.71,1882.34z"/>
<path fill="#33C18E" d="M857.95,1937.69c-5.22,2.63-25.13,0.81-25.13,0.81s10.38-17.09,15.6-19.72
	c5.168-2.738,11.578-0.767,14.315,4.402c2.738,5.168,0.767,11.578-4.402,14.315C858.207,1937.564,858.079,1937.628,857.95,1937.69z"
	/>
<path fill="#33C18E" d="M847.94,1979.44c-4.7,3.48-24.63,5-24.63,5s7.34-18.59,12-22.07c4.523-3.708,11.196-3.047,14.904,1.477
	c3.708,4.523,3.047,11.196-1.477,14.904c-0.269,0.22-0.548,0.427-0.837,0.62L847.94,1979.44z"/>
<path fill="#33C18E" d="M815.21,1896.86c4.19,4.07,23.73,8.3,23.73,8.3s-4.79-19.41-9-23.49c-4.09-4.18-10.795-4.254-14.976-0.163
	s-4.254,10.795-0.163,14.976c0.126,0.129,0.256,0.255,0.389,0.378H815.21z"/>
<path fill="#33C18E" d="M804.12,1945.83c5.22,2.63,25.13,0.81,25.13,0.81s-10.38-17.08-15.6-19.72
	c-5.275-2.526-11.599-0.297-14.125,4.978C797.072,1937.023,799.099,1943.171,804.12,1945.83z"/>
<path fill="#33C18E" d="M799.88,1994.91c4.7,3.47,24.62,5,24.62,5s-7.33-18.59-12-22.07c-4.866-3.246-11.441-1.932-14.686,2.933
	c-3.022,4.531-2.115,10.614,2.096,14.067L799.88,1994.91z"/>
<path fill="#A8A8A8" d="M795.55,2021.44c0,0,17.12-3.4,21.68-7.93c4.56-4.53,25.1-12.46,27.38-6.8c2.28,5.66,30.8,24.92,11.4,28.32
	c-19.4,3.4-45.63,4.53-51.33,2.26S795.55,2021.44,795.55,2021.44z"/>
<path opacity="0.2" enable-background="new    " d="M856.04,2032.91c-19.39,3.4-45.63,4.53-51.33,2.27
	c-4.34-1.73-7.36-10-8.55-13.87l-0.61,0.13c0,0,3.43,13.59,9.13,15.85c5.7,2.26,31.94,1.13,51.33-2.26c5.6-1,7.2-3.29,6.6-6.2
	C862.16,2030.72,860.21,2032.18,856.04,2032.91z"/>
<linearGradient id="SVGID_1_" gradientUnits="userSpaceOnUse" x1="1193.3223" y1="-1326.4097" x2="1193.3223" y2="-613.9319" gradientTransform="matrix(1 0 0 -1 -51.45 713.55)">
	<stop  offset="0" style="stop-color:#808080;stop-opacity:0.25"/>
	<stop  offset="0.54" style="stop-color:#808080;stop-opacity:0.12"/>
	<stop  offset="1" style="stop-color:#808080;stop-opacity:0.1"/>
</linearGradient>
<path fill="url(#SVGID_1_)" d="M1350.27,1516.98c5.37-6,3.27-15.35,3.27-15.35s-25.34-64.58-28.15-65.29c-2.81-0.71-9.86-17-9.86-17
	s-67.57-64.23-70-64.23c-2.43,0-27.1-17.74-30.26-18.09c-3.16-0.35-8.1-2.13-13.38-5s-58.78,0.36-60.89,2.84s-12,4.26-12,4.26
	s-20.06,1.06-22.88,4.61c-2.82,3.55-23.57,5.43-23.57,5.43s-10.21,3.8,3.65,13.89l0,0c-4.44,0.7-9.63,1.24-14.9,1.62
	c-1.32,0.09-2.66,0.18-4,0.25h-0.79c-0.885-2.676-2.611-4.994-4.92-6.61c-1.51-0.82-3.07-1.545-4.67-2.17
	c-2.478-1.318-4.799-2.911-6.92-4.75c-10.26-8.159-21.207-15.413-32.72-21.68c-1.777-1.113-3.76-1.857-5.83-2.19
	c-4.29-0.41-8.12,2.6-12.32,3.61c-7.38,1.77-14.82-2.73-22.41-2.8c-9.48-0.09-18.11,7.29-21,16.39c-1.07,3.37-1.55,7.12-3.86,9.79
	c-3,3.49-8.07,4-12.18,6.07c-6.07,3.166-9.878,9.444-9.88,16.29v0.08c0,0.53,0,1.06,0.09,1.59c0.47,4.28,2.45,8.23,3.9,12.29
	c1.49,4.16,2.431,8.497,2.8,12.9c0.005,0.047,0.005,0.093,0,0.14c0.06,0.73,0.11,1.46,0.14,2.2c0,0.15,0,0.31,0,0.47
	c0,0.7,0,1.41,0,2.12c0,3.82-0.13,7.67-0.12,11.49v0.2v1.73c0,0.14,0,0.28,0,0.42c0,0.51,0,1,0.06,1.54v0.54
	c0,0.47,0.07,0.95,0.12,1.42c0,0.2,0,0.41,0.05,0.61c0,0.46,0.11,0.91,0.17,1.36l0.09,0.64c0.07,0.45,0.15,0.9,0.23,1.35l0.12,0.62
	c0.1,0.48,0.22,1,0.34,1.44c0.05,0.17,0.08,0.33,0.12,0.5c0.18,0.667,0.38,1.307,0.6,1.92c3.037,8.518,9.978,15.06,18.66,17.59
	c1.611,0.444,3.279,0.653,4.95,0.62c3-0.07,5.87-1,7.65-3.05c0.44,0.5,0.87,1,1.33,1.5c22.403,24.364,60.315,25.954,84.679,3.551
	c5.151-4.736,9.432-10.338,12.651-16.551c1.05-0.23,2.09-0.44,3.14-0.64c1.82-0.34,3.65-0.66,5.49-1l1.77-0.28l0,0l0.7-0.12
	c9-1.42,17.74-2.37,24-3l-24.74,3.07c0,0-6,28.81-7.73,32c-1.73,3.19,6,8.51,6,8.51s6.69,8.16,6.69,10.65s7.74,9.58,9.85,13.48
	c0.268,0.495,0.605,0.949,1,1.35c-1.562,0.604-3.005,1.481-4.26,2.59c-4.89,4.63-3.26,12.75-5.5,19.11c-1.4,4-4.33,7.24-7.15,10.39
	c-1.013,1.028-1.862,2.205-2.52,3.49c-0.367,0.851-0.593,1.756-0.67,2.68l0,0c-0.05,0.512-0.07,1.026-0.06,1.54v0.18
	c0,0.4,0,0.79,0.08,1.18c0,0.17,0,0.34,0,0.51c0.49,4.18,1.91,8.22,2.34,12.4c0.43,4.18-0.09,8.39,0.77,12.46
	c0.298,1.419,0.761,2.799,1.38,4.11l-14.32,16c0,0-0.09,0.79-0.12,2.09c-11.94,9.91-30.4,28.61-23.81,45.1
	c0.72,1.807,1.387,3.537,2,5.19c-4.85,3.09-6.45,6.76,0.82,10.42c1.15,0.58,2.26,1.08,3.35,1.53c3.73,10.95,5.19,14,11.44,5.93
	c0.67-0.88,1.45-2,2.3-3.21c8.8-0.18,13.89-4.25,13.89-4.25s24.63-1.42,31,2.49c3.19,2,10.69,2.4,17.33,2.35
	c-0.089,7.153,0.245,14.306,1,21.42c0,0-1.06,30.16,1.76,36.55c2.82,6.39,4.38,17.39,4.38,17.39s-4.73,10.64-1.92,16.32
	c2.81,5.68-2.46,13.84-2.46,13.84v20.93l2-0.14c-0.15,1.41-0.34,2.89-0.59,4.3c-0.58,3.27-1.45,6.2-2.79,7.15
	c-3.52,2.53-3.87,16-3.87,16s-5.63,16.33-4.58,19.17c1.05,2.84-6.68,8.51-4.92,12.77s5.36,31.22,8.49,39s-6.38,5.68-6.38,5.68
	l2.81,20.22c0,0,2.82,20.58,0.71,22c-2.11,1.42-14.25,11.71-5.9,17.74c0.65,0.47,1.31,0.9,2,1.31c0.037,0.934,0.014,1.869-0.07,2.8
	c-0.16,1.59-0.56,2.86-1.45,3c-2.48,0.36-7.41,2.84-8.45,1.78c-1.04-1.06-7,2.68-13,3.9l-0.83,0.13l-7.79-2
	c-11.271-4.294-23.643-4.751-35.2-1.3c0,0-5.65,0.88-8.39,5.1c-1.39,2.16-2,5.2-0.76,9.44c3.76,12.54,29.39,16.86,29.39,16.86
	s8.88,1.83,19.55,4.25c-0.35,0-0.71,0-1.07,0c-6.5-0.045-11.806,5.188-11.851,11.688s5.188,11.806,11.688,11.851
	c6.5,0.045,11.806-5.188,11.851-11.688c0.034-4.956-3.04-9.402-7.688-11.121c12,2.76,25.29,6.12,30.69,8.49
	c4.021,1.514,8.14,2.75,12.33,3.7c0.536,6.439,6.191,11.225,12.63,10.689c3.813-0.318,7.23-2.479,9.15-5.789
	c16.33,3.41,32.06,6.3,32.06,6.3l26.27,0.43h0.18c-6.462,0.044-11.664,5.318-11.62,11.78s5.318,11.664,11.78,11.62
	c6.462-0.044,11.664-5.318,11.62-11.78c-0.044-6.399-5.221-11.576-11.62-11.62l39.77,0.65c-1.834,6.219,1.72,12.747,7.939,14.582
	c6.219,1.834,12.747-1.72,14.582-7.939c0.327-1.108,0.488-2.258,0.479-3.413c-0.002-0.964-0.123-1.925-0.36-2.86l35.08,0.57l7-7.7
	c0.391-0.748,0.626-1.568,0.69-2.41c0.21-2.53-1.1-6.37-10.06-8c-0.66-0.12-18.94,0.17-35.09,0.44v-6.34c0,0-0.45-3.49-0.73-7.6
	c-0.08-1.21-0.15-2.47-0.18-3.71c0.914,0.626,1.929,1.089,3,1.37c6.69,1.07,15.84-18.45,15.84-18.45s0-11,2.11-19.87
	s6-38.68,6-38.68l8.46-35.83c0,0,3.5-73.1,1.74-75.94c-1.76-2.84,2.12-7.81,2.12-7.81s2.81-15.61-1.41-20.93
	c-4.22-5.32,2.46-10.65,2.46-10.65s1.76-18.45-3.17-25.54c-4.93-7.09,2.31-12.06,2.31-12.06l1.76-28.74
	c7.39-7.45,14.07-51.8,14.43-61.38c0.092-5.393,1.29-10.709,3.52-15.62c0,0,4.92-7.45,5.63-12.42c0.71-4.97,6-15.25,6-15.25
	l9.15-34.07c3.69-13.74,2.75-23.9,0.3-31.14C1351.04,1518.8,1350.66,1517.87,1350.27,1516.98z M1184.96,1518.98
	c5.63,3.55,3.87,4.61,5.63,6.74s0.35,1.77-1.06,5.32c-1.41,3.55-0.35,2.49,0.35,6.39s0.36,3.9,0.36,3.9l1.76,0.25l-2.45,16.47
	c-4,2.61-5.83,7.61-6.66,12.77c-2.36-3.08-4.74-6.28-6.87-9.26c0.73-1.63,0.59-3.57,0.61-5.4c0.08-6,2.32-11.73,3.35-17.64
	c1.052-6.012,0.858-12.176-0.57-18.11c-0.513-2.233-1.302-4.393-2.35-6.43c2.28,1.52,5.17,3.32,7.9,5.04V1518.98z M1191.29,1866.71
	c0,0,4.45-3,8.77-5.73c1.45,10.53,2.82,21.48,3.79,31.38c-1.55-3.44-2.63-5.78-2.63-5.78c-1.587-1.908-2.538-4.265-2.72-6.74
	c-0.17-3.86-7.21-13.09-7.21-13.09V1866.71z M1164.9,1501.99c1,0.14,2.42,1.41,3.76,2.93c-1.24-1-2.49-2-3.77-2.94L1164.9,1501.99z
	 M1100.49,1633.27c-4.06,1.28-17.82,1.09-26,0.61c3.06-5.23,6.1-10.55,8.8-15.32c1.592,0.412,3.214,0.703,4.85,0.87l26.79-23.53
	c10.077,3.534,21.069,3.464,31.1-0.2l0.73,1.14c0.31,0.5,0.64,1,1,1.56l-0.67-1.09c0,0-10.34,6.16-9.29,9s-1.4,9.93-5.27,17.53
	c-1,1.9-1.87,3.78-2.71,5.67C1121.06,1630.33,1104.55,1631.99,1100.49,1633.27z M1151.32,1961.11l-0.15-2.81
	c1.7-0.37,2.82-0.71,2.82-0.71c-0.351-4.17-0.939-8.317-1.76-12.42c-1.06-4.26-0.51-2.84,3.61-6c4.12-3.16,0-39,0-39
	s2-2.49,5.17,3.9c3.17,6.39,6.35,10.29,7.41,10.64c1.06,0.35-4.23,7.46,0,14.2c2.626,4.36,4.414,9.173,5.27,14.19
	c0,0-2.81,11.27,1.41,16.28c0.57,0.584,1.25,1.049,2,1.37c0,0.93,0,1.92,0,2.85c0,1.87,0,3.47-0.09,3.81
	c-0.131,0.768-0.859,1.284-1.627,1.153c-0.227-0.039-0.441-0.132-0.623-0.273c-1.09-0.71-8,0.88-7.53,5.33
	c-1.634,1.931-3.486,3.666-5.52,5.17l-9.59-2.48L1151.32,1961.11z"/>
<path fill="#6C63FF" d="M1064.95,1593.5c0,0-3.35,27.45,23.22,30.26l4-19l-8.37-11.26l-11.99-4.06L1064.95,1593.5z"/>
<path opacity="0.1" enable-background="new    " d="M1071.81,1589.44l-6.86,4.05c0,0-3.35,27.45,23.22,30.26"/>
<path fill="#AF7766" d="M1113.16,1438.29c0,0-17.93,1.1-35.91,4.08c-1.84,0.313-3.67,0.647-5.49,1c-1.06,0.2-2.1,0.41-3.14,0.64
	c-9.42,1.94-18,4.46-23,7.68c-6,3.85-8-6.52-8.19-20.93c-0.08-5.07,0.09-10.63,0.36-16.25c0.35-6.5,0.86-13.08,1.4-19
	c1.19-13.12,2.56-23.32,2.56-23.32s6.28,0,14.67-0.29l2.7-0.1c2.63-0.1,5.42-0.24,8.23-0.41c1.33-0.07,2.67-0.15,4-0.25
	c5.32-0.38,10.57-0.92,15-1.62c4.72-0.76,8.55-1.72,10.63-3C1106.48,1360.86,1113.16,1438.29,1113.16,1438.29z"/>
<path fill="#474463" d="M1193.05,1539.65l-3.5,23.23c0,0-7.63,9.5-6.63,14.78c1,5.28,9.8,238.62,9.8,238.62
	s17.25,98.54,11.26,111.21s-0.35,42.24-0.35,42.24l35.9-5.63l12-430.79L1193.05,1539.65z"/>
<path fill="#494656" d="M1193.05,1539.65l-3.5,23.23c0,0-7.63,9.5-6.63,14.78c1,5.28,9.8,238.62,9.8,238.62
	s17.25,98.54,11.26,111.21s-0.35,42.24-0.35,42.24l35.9-5.63l12-430.79L1193.05,1539.65z"/>
<path fill="#575988" d="M1272.24,1975.71c-1.14,1.89-1.05,7.45-0.73,12.18c0.28,4.07,0.73,7.53,0.73,7.53v23.93
	c0,0-38.36-13.37-59.48-27.45c-8.71-5.81-11.19-11.21-10.71-15.53c0.7-6.15,7.4-10.16,10.71-10.16c3.16,0,13.14-5.51,21.32-10.38
	c6.43-3.81,11.77-7.22,11.77-7.22S1274.35,1972.19,1272.24,1975.71z"/>
<path opacity="0.1" enable-background="new    " d="M1272.24,1975.71c-1.14,1.89-1.05,7.45-0.73,12.18
	c-8.53-4-34.94-29.62-37.43-32.06c6.43-3.81,11.77-7.22,11.77-7.22S1274.35,1972.19,1272.24,1975.71z"/>
<path fill="#494656" d="M1351.08,1555.84l-9.15,33.79c0,0-5.28,10.2-6,15.13c-0.72,4.93-5.63,12.32-5.63,12.32
	c-2.222,4.864-3.42,10.133-3.52,15.48c-0.35,9.51-7,53.5-14.43,60.89l-1.76,28.51c0,0-7,4.92-2.11,12
	c4.89,7.08,3.17,25.34,3.17,25.34s-6.69,5.28-2.46,10.56c4.23,5.28,1.4,20.77,1.4,20.77s-3.87,4.92-2.11,7.74
	c1.76,2.82-1.74,75.32-1.74,75.32l-8.46,35.54c0,0-3.88,29.57-6,38.37c-2.12,8.8-2.11,19.7-2.11,19.7s-9.15,19.36-15.84,18.31
	c-6.69-1.05-39.06-32.74-39.06-32.74l4.57-107c0,0,3.87-45.4,1.41-54.2c-2.46-8.8-4.22-52.79-4.22-52.79l-4.93-69.33l-49.22-77.43
	c0,0-3.57-22.53,6.63-29.21l1.85-12.17l1.67-11.06l58.43-6.34l89.39-23.22c0,0,6.89,4.25,10.5,14.86
	C1353.82,1532.13,1354.77,1542.21,1351.08,1555.84z"/>
<path fill="#AF7766" d="M1195.55,1591.44c0,0-41.53,51-39.77,36.75c1.1-8.95-4.58-19.88-9-26.79c-2.61-4.11-4.77-6.8-4.77-6.8
	s25.34-46.45,26.75-40.12c0.45,2,3.38,6.59,7.15,11.83C1183.86,1577.29,1195.55,1591.44,1195.55,1591.44z"/>
<path opacity="0.3" fill="#FFFFFF" enable-background="new    " d="M1272.24,2014.37v5c0,0-38.36-13.37-59.48-27.45
	c-8.71-5.81-11.19-11.21-10.71-15.53c11.66,5.9,33.35,17.15,39.92,22.22C1247.55,2002.91,1261.97,2009.72,1272.24,2014.37z"/>
<circle fill="#474463" cx="1263.21" cy="2021.63" r="11.73"/>
<circle fill="#474463" cx="1143.39" cy="2005.16" r="11.73"/>
<path fill="#AD755D" d="M1317.39,2009.33c-0.066,0.835-0.301,1.648-0.69,2.39l-7,7.63l-97.84-1.57l-26.31-0.43
	c0,0-55.38-10.08-66.17-14.78c-10.79-4.7-53.21-13.3-53.21-13.3s-25.62-4.3-29.38-16.73c-1.27-4.21-0.63-7.22,0.76-9.36
	c2.73-4.19,8.39-5.07,8.39-5.07c11.561-3.415,23.922-2.958,35.2,1.3l164,42.19l2.54,0.65c0,0,58.46-1.09,59.64-0.88
	C1316.29,2003.01,1317.6,2006.82,1317.39,2009.33z"/>
<path opacity="0.3" fill="#FFFFFF" enable-background="new    " d="M1317.39,2009.33c-9.84-1.28-27-3.17-31.42-1.35
	c0,0-31.21-3.86-74.15,9.8l-26.27-0.43c0,0-55.38-10.08-66.17-14.78c-10.79-4.7-53.21-13.3-53.21-13.3s-25.62-4.3-29.38-16.73
	c-1.27-4.21-0.63-7.22,0.76-9.36c1.75,5.1,5.12,12.49,10.5,14.56c8.45,3.25,43.18,9.87,43.18,9.87l68.74,16.83
	c0,0,39.69,8.61,55.14,3c6.33-2.28,18.21-4.31,30-5.9l2.54,0.65c0,0,58.46-1.09,59.64-0.88
	C1316.29,2003.01,1317.6,2006.82,1317.39,2009.33z"/>
<path fill="#474463" d="M1222.46,1996.66c-0.083,1.474-0.267,2.941-0.55,4.39c0,0-38.88,1.39-59.12-1.61
	c-5.59-0.83-8.75-2.62-10.32-4.76c-1.424-2.055-1.7-4.695-0.73-7c0.224-0.652,0.508-1.281,0.85-1.88c1.51-2.64,3.83-4.51,5.1-4.26
	c3.52,0.71,9.56-6.51,9.56-6.51c-0.48-4.41,6.45-6,7.53-5.28c0.617,0.475,1.502,0.36,1.977-0.257
	c0.14-0.182,0.234-0.396,0.273-0.623c0.07-0.33,0.09-1.92,0.09-3.78c0-3.1-0.09-7-0.09-7l39.08,4.75l1.55,7.47
	c1.42,6.66,3.4,15.81,4.25,18.94C1222.501,1991.673,1222.687,1994.177,1222.46,1996.66z"/>
<path opacity="0.1" enable-background="new    " d="M1222.46,1996.66c-0.083,1.474-0.267,2.941-0.55,4.39c0,0-38.88,1.39-59.12-1.61
	c-5.59-0.83-8.75-2.62-10.32-4.76c5.19-0.31,11.94-0.48,16.12,0.54C1174.55,1996.7,1210.2,1996.7,1222.46,1996.66z"/>
<path fill="#474463" d="M1152.55,1985.78c0.087,0.736-0.24,1.459-0.85,1.88c-4.92,3.8-28.53-0.33-28.53-0.33s-48.24-3-55.45-7.92
	c-0.651-0.428-1.195-0.999-1.59-1.67c-3-5.42,7.86-14.52,8.8-14.52c0.94,0,13.91-1.77,14.78-1.94c6-1.21,12-4.93,13-3.87
	c1,1.06,6-1.41,8.44-1.76c0.89-0.13,1.3-1.39,1.45-3c0.141-2.179,0.067-4.366-0.22-6.53l38.53,10.37l0.34,6.14l1.11,20.44l0.14,2.51
	C1152.524,1985.645,1152.541,1985.712,1152.55,1985.78z"/>
<path opacity="0.1" enable-background="new    " d="M1123.21,1987.33c0,0-48.24-3-55.45-7.92c-0.651-0.428-1.195-0.999-1.59-1.67
	c9.77,0.8,26.06,2.15,29,2.9c4.23,1,28,2.46,28,2.46h29.23l0.14,2.51C1153.81,1992.69,1123.21,1987.33,1123.21,1987.33z"/>
<circle fill="#474463" cx="1084.65" cy="2005.16" r="11.73"/>
<circle fill="#474463" cx="1212.05" cy="2029.51" r="11.73"/>
<path fill="#AF7766" d="M1092.75,1606.17c0,0-2.22,4-5.56,9.94c-8,14.12-22.39,39.15-28.58,47.07c-8.8,11.26-8.09,0.71-17.6-22.87
	c-7.06-17.54,14.67-37.61,26.29-46.73c4-3.17,6.8-5,6.8-5L1092.75,1606.17z"/>
<path fill="#AF7766" d="M1135.33,1633.27c0,0-29.21,2.46-34.84,4.22s-29.91,0.7-32,0c-2.09-0.7-43.65,8.8-24.64,18.3s31,0,31,0
	s24.64-1.41,31,2.47s29.56,1.76,29.56,1.76L1135.33,1633.27z"/>
<path opacity="0.1" enable-background="new    " d="M1074.65,1417.88c3.6,9.21,1.35,17.23-2.89,25.46
	c-10.62,2-20.61,4.75-26.17,8.32c-15.84,10.21-3.87-79.54-3.87-79.54s7.66,0,17.37-0.39
	C1056.15,1385.15,1067.29,1399.08,1074.65,1417.88z"/>
<path fill="#AF7766" d="M1075.55,1415.88c-0.042,33.137-26.939,59.966-60.076,59.923c-33.137-0.042-59.966-26.939-59.923-60.077
	c0.042-33.137,26.939-59.966,60.076-59.923c22.972,0.029,43.91,13.172,53.924,33.846
	C1073.51,1397.826,1075.562,1406.795,1075.55,1415.88z"/>
<path opacity="0.1" enable-background="new    " d="M1351.37,1524.95c-1.9,2.765-4.745,4.739-8,5.55
	c-13.73,3.87-110.52,27.1-116.85,25.69c-5.59-1.24-29.58-4.69-35.11-5.48l1.67-11.06l58.43-6.34l89.39-23.22
	C1340.9,1510.09,1347.76,1514.34,1351.37,1524.95z"/>
<path opacity="0.1" enable-background="new    " d="M1113.16,1438.29c-11.441,0.686-22.839,1.954-34.15,3.8
	c0.161-0.515,0.14-1.069-0.06-1.57l23.4-2.89c0,0-3.42-55-16-68.18c4.72-0.76,8.55-1.72,10.63-3
	C1106.48,1360.86,1113.16,1438.29,1113.16,1438.29z"/>
<path fill="#12ADA9" d="M1082.55,1355.69c0,0,20.77-1.87,23.58-5.39c2.81-3.52,22.88-4.57,22.88-4.57s9.85-1.76,12-4.23
	s55.6-5.63,60.88-2.81c5.28,2.82,10.21,4.57,13.38,4.93c3.17,0.36,27.8,17.94,30.26,17.94c2.46,0,70,63.71,70,63.71
	s7,16.19,9.86,16.89c2.86,0.7,28.16,64.76,28.16,64.76s3.52,15.48-10.2,19.36c-13.72,3.88-110.52,27.1-116.85,25.69
	c-6.33-1.41-36.25-5.63-36.25-5.63s0.35,0-0.35-3.87s-1.76-2.82-0.36-6.34s2.82-3.17,1.06-5.28s0-3.17-5.63-6.69
	s-12-7.39-12.32-8.44c-0.32-1.05-5.28-8.1-7.74-8.45s-71.45-19.71-71.45-19.71l-16.19-5.28c0,0-7.74-5.28-6-8.44
	c1.74-3.16,7.73-31.75,7.73-31.75l24.75-3.05c0,0-3.69-59.6-17.55-69.6C1072.34,1359.44,1082.55,1355.69,1082.55,1355.69z"/>
<path opacity="0.1" enable-background="new    " d="M1092.75,1606.17c0,0-2.22,4-5.56,9.94c-0.52-18.36-13.36-21.92-19.89-22.53
	c4-3.17,6.8-5,6.8-5L1092.75,1606.17z"/>
<path fill="#12ADA9" d="M1075.55,1472.78l1.7,9.5c0,0,6.69,8.1,6.69,10.56s7.74,9.5,9.86,13.37s9.5,4.58,6.68,11.27
	c-2.82,6.69-19,57.72-19,57.72l-16.54,18.3c0,0,27.45-2.47,23.22,30.26l35.55-31l27.84-50.65c0,0-27.1-51.38-28.15-55.6
	S1075.55,1472.78,1075.55,1472.78z"/>
<path opacity="0.1" enable-background="new    " d="M1157.86,1490.38c0,0,22.52-15.84,22.52-17.6S1157.86,1490.38,1157.86,1490.38z"
	/>
<path opacity="0.1" enable-background="new    " d="M1195.55,1510.09c0,0,12-2.82,13-9.15
	C1209.55,1494.61,1195.55,1510.09,1195.55,1510.09z"/>
<path opacity="0.1" enable-background="new    " d="M1205.37,1526.28c0,0,16.9-8.37,16.19-9.82
	C1220.85,1515.01,1205.37,1526.28,1205.37,1526.28z"/>
<path opacity="0.1" enable-background="new    " d="M1295.82,1472.67c0,0-7,4.57-4.92,8.85
	C1292.98,1485.8,1295.82,1472.67,1295.82,1472.67z"/>
<path opacity="0.1" enable-background="new    " d="M1316.55,1474.54c0,0-19.94,19-15.43,19.36S1316.55,1474.54,1316.55,1474.54z"/>
<path opacity="0.1" enable-background="new    " d="M1271.19,1769.12c0,0,25.69,4.93,26.39,6.69
	C1298.28,1777.57,1271.19,1769.12,1271.19,1769.12z"/>
<path opacity="0.1" enable-background="new    " d="M1280.34,1786.01c0,0,13.72,8.45,14.07,10.91
	C1294.76,1799.38,1280.34,1786.01,1280.34,1786.01z"/>
<path opacity="0.1" enable-background="new    " d="M1277.17,1805.02c0,0,2.11,9.5,5.63,10.91
	C1286.32,1817.34,1277.17,1805.02,1277.17,1805.02z"/>
<path opacity="0.1" enable-background="new    " d="M1069.61,1389.34c0,0.1,0,0.21-0.05,0.31c-0.48,3.13-1.76,6.52-4.7,7.56
	c-1.776,0.5-3.675,0.325-5.33-0.49c-5-2.19-9.45-7.45-14.79-6.18c-2.54,0.6-4.32,2.53-5.58,4.9c-0.874,1.706-1.545,3.508-2,5.37
	c-1,3.92-1.8,8.18-0.27,11.91c0.252,0.61,0.553,1.199,0.9,1.76c1.42,2.27,3.42,4.2,4.82,6.49c1.74,2.86,2.19,7.15-0.52,9.11
	c-1.377,0.905-3.088,1.144-4.66,0.65c-1.985-0.624-3.894-1.469-5.69-2.52c-3.54-1.85-8-3-11.36-0.86c-1.16,0.72-2.09,1.76-3.2,2.52
	c-2.307,1.429-5.044,1.999-7.73,1.61c-6.36-0.65-8.74-4.68-13.6-7.8c-3.56-2.3-11-3.28-13.12,1.42c-1.36,3,0.66,6.78-0.67,9.84
	c-1.33,3.06-5.56,4-7.52,6.84c-2.58,3.74-0.18,9.15-2.07,13.3c-0.289,0.643-0.677,1.237-1.15,1.76
	c-22.609-24.362-21.188-62.439,3.174-85.048c23.106-21.444,58.845-21.423,81.926,0.048l2.7-0.1c2.63-0.1,5.42-0.24,8.23-0.41
	c0.664,1.407,1.184,2.878,1.55,4.39C1069.988,1380.175,1070.229,1384.796,1069.61,1389.34z"/>
<path fill="#474463" d="M981.3,1423.7c-1.37,3,0.65,6.78-0.67,9.83c-1.32,3.05-5.58,4-7.52,6.84c-2.59,3.75-0.19,9.16-2.07,13.3
	c-2.16,4.73-8.68,5.47-13.68,4.09c-8.666-2.475-15.611-8.969-18.66-17.45c-3.39-9.65-1.2-20.27-2.08-30.46
	c-0.375-4.367-1.316-8.666-2.8-12.79c-1.45-4-3.43-7.94-3.9-12.19c-0.688-7.378,3.185-14.432,9.78-17.81c4.12-2,9.19-2.57,12.19-6
	c2.3-2.66,2.79-6.37,3.86-9.72c2.89-9,11.52-16.34,21-16.25c7.58,0.06,15,4.53,22.41,2.77c4.19-1,8-4,12.32-3.57
	c2.069,0.325,4.052,1.063,5.83,2.17c11.502,6.212,22.445,13.406,32.71,21.5c2.123,1.829,4.448,3.409,6.93,4.71
	c1.598,0.623,3.158,1.341,4.67,2.15c3.23,2,4.92,5.81,5.84,9.51c1.104,4.453,1.355,9.074,0.74,13.62c-0.44,3.21-1.7,6.81-4.75,7.88
	c-1.782,0.497-3.684,0.315-5.34-0.51c-5-2.17-9.44-7.43-14.78-6.17c-4.36,1-6.46,5.94-7.6,10.27c-1,3.92-1.82,8.18-0.27,11.92
	c1.28,3.1,4,5.37,5.71,8.24c1.71,2.87,2.2,7.16-0.52,9.11c-3,2.17-7.07-0.14-10.36-1.86c-3.52-1.85-8-3-11.35-0.87
	c-1.15,0.72-2.08,1.76-3.2,2.53c-2.309,1.415-5.039,1.981-7.72,1.6c-6.37-0.65-8.75-4.68-13.6-7.8
	C990.85,1419.97,983.43,1418.99,981.3,1423.7z"/>
<path opacity="0.1" enable-background="new    " d="M1175.92,1566.26c-0.27,1.5-2.33,1.67-2.75,3.13c-4,14.11-12.8,26.8-26.38,32
	c-2.61-4.11-4.77-6.8-4.77-6.8s25.34-46.45,26.75-40.12C1169.22,1556.44,1172.15,1561.02,1175.92,1566.26z"/>
<path fill="#AF7766" d="M1176.67,1556.54c0.005,25.659-20.791,46.464-46.45,46.47c-25.659,0.005-46.464-20.791-46.47-46.45
	c-0.005-25.659,20.791-46.464,46.45-46.47c0.003,0,0.007,0,0.01,0c25.565-0.094,46.366,20.554,46.46,46.119
	C1176.67,1556.32,1176.67,1556.43,1176.67,1556.54z"/>
<path opacity="0.1" enable-background="new    " d="M1150.99,1956.52l0.34,6.14c-4.07,0.9-11.81,2.08-16.32-0.68
	c-5.83-3.57-14.44-4.44-22.33-9.3c0.141-2.179,0.067-4.366-0.22-6.53L1150.99,1956.52z"/>
<path opacity="0.1" enable-background="new    " d="M1217.66,1970.33c-0.27,1.37-0.52,2.21-0.52,2.21s-31.05-3.18-40-7.47
	c0-3.1-0.09-7-0.09-7l39.08,4.75L1217.66,1970.33z"/>
<path fill="#575988" d="M1210.65,1830.71c-2.11,5.63-3.17,6.69-1.05,9.5c2.12,2.81,1.05,17.6-2.31,19s-16,9.85-16,9.85
	s7,9.15,7.21,13c0.184,2.46,1.135,4.8,2.72,6.69c0,0,10.84,23.23,13,30.62c2.16,7.39,4.14,19,4.14,19s-3.79,10.56-1.17,16.55
	s0,14.78,0,14.78s-37.81-3.87-42-8.84c-4.19-4.97-1.4-16.15-1.4-16.15c-0.864-4.982-2.655-9.758-5.28-14.08
	c-4.23-6.69,1-13.72,0-14.08c-1-0.36-4.23-4.22-7.41-10.55c-3.18-6.33-5.16-3.88-5.16-3.88s4.12,35.55,0,38.72
	c-4.12,3.17-4.68,1.76-3.62,6c0.821,4.07,1.409,8.183,1.76,12.32c0,0-12.67,3.87-19,0c-6.33-3.87-15.86-4.58-24.23-10.56
	s3.79-16.19,5.9-17.6c2.11-1.41-0.7-21.82-0.7-21.82l-2.82-20.06c0,0,9.5,2.11,6.38-5.63s-6.73-34.49-8.49-38.71
	c-1.76-4.22,6-9.86,4.93-12.67c-1.07-2.81,4.57-19,4.57-19s0.36-13.37,3.87-15.88c1.34-0.94,2.21-3.86,2.79-7.09
	c0.615-3.812,0.979-7.66,1.09-11.52c0,0,80.59-5.63,93.61,2.11c5.86,3.48,5.45,9.89,3,16.38c-3,7.92-9.16,16-10.71,18.93
	C1211.36,1821.44,1212.76,1825.08,1210.65,1830.71z"/>
<path opacity="0.1" enable-background="new    " d="M1224.88,1797.11c-10,2.81-23.32,6.94-25.49,9.31
	c-3.52,3.88-15.49-21.82-15.49-21.82s0.71,19.32-15.13,11.24c-13.71-7-35.84-6.08-41.56-5.7c0.615-3.812,0.979-7.66,1.09-11.52
	c0,0,80.59-5.63,93.61,2.11C1227.77,1784.21,1227.36,1790.62,1224.88,1797.11z"/>
<path fill="#DCE6F2" d="M1183.9,1584.35c0,0,7-8.45,8.45-5.28c1.45,3.17,9.71,9.5,9.71,9.5s2.37,7.39,6.54,8.45
	c4.17,1.06,35.49,43.29,35.49,43.29l-11.27,22.87l-9.15,55.61c0,0,0.4,8.8-2.09,12c-2.49,3.2-12,2.46-7.59,6.33
	c4.41,3.87,10.74,7.39,14.26,25s7.74,27.8,7.74,27.8s-33.08,8.45-36.6,12.32c-3.52,3.87-15.49-21.82-15.49-21.82
	s0.71,19.31-15.13,11.24c-15.84-8.07-42.94-5.61-42.94-5.61v-20.8c0,0,5.28-8.1,2.47-13.73s1.92-16.19,1.92-16.19
	s-1.57-10.91-4.39-17.24c-2.82-6.33-1.76-36.25-1.76-36.25s-2.14-19.36-0.19-29.22c1.655-8.546,4.577-16.797,8.67-24.48
	c3.87-7.54,6.32-14.58,5.27-17.4c-1.05-2.82,9.29-8.92,9.29-8.92l5.73,9.27l1.46,5.54
	C1154.3,1616.63,1184.61,1594.91,1183.9,1584.35z"/>
<path fill="#AF7766" d="M1234.55,1633.27c0,0,19.71,19.35,21.82,22.52c2.11,3.17,9.18,19.65,0.03,24.65s-45,12.71-48.56,10.05
	c-3.56-2.66-25,3-25,3s-35.86,8.8-28.12-5.63c7.74-14.43,26.05-12,26.05-12s29.58-0.05,32.74-3c3.16-2.95,27-9.28,21.6-22.32
	C1229.71,1637.5,1234.55,1633.27,1234.55,1633.27z"/>
<path opacity="0.1" enable-background="new    " d="M1176.67,1719.85c0,0-45.91,39.77-41.34,39.77S1176.67,1719.85,1176.67,1719.85z
	"/>
<path opacity="0.1" enable-background="new    " d="M1207.29,1736.04c0,0-14.59,3.51-11.77,5.63
	C1198.34,1743.79,1207.29,1736.04,1207.29,1736.04z"/>
<path opacity="0.1" enable-background="new    " d="M1155.84,1639.6c0,0,18.21,1.63,15,7.33
	C1167.63,1652.63,1155.84,1639.6,1155.84,1639.6z"/>
<path opacity="0.1" enable-background="new    " d="M1144.49,1810.53c0,0-2.47,7.16,0,11c2.47,3.84,0,13,0,13v32
	c0,0-0.34,23.23,8.09,31.32L1144.49,1810.53z"/>
<path opacity="0.1" enable-background="new    " d="M1120.38,1910.25c0,0,4.92,7.21,5.63,9.85
	C1126.72,1922.74,1120.38,1910.25,1120.38,1910.25z"/>
<path opacity="0.1" enable-background="new    " d="M1121.61,1895.82c0,0,11.44-2.11,13.2-0.88S1121.61,1895.82,1121.61,1895.82z"/>
<path opacity="0.1" enable-background="new    " d="M1118.27,1938.93c0,0-3.35,0.35,3.34,4c6.69,3.65,19.71,8.27,19.88,6.69
	C1141.66,1948.04,1118.27,1938.93,1118.27,1938.93z"/>
<path opacity="0.1" enable-background="new    " d="M1167.24,1903.91c1.18,0,15.91-0.88,15.06,1.41
	C1181.45,1907.61,1167.24,1903.91,1167.24,1903.91z"/>
<path opacity="0.1" enable-background="new    " d="M1187.25,1883.32c0,0,3.34-5.8,4.57-3.34S1187.25,1883.32,1187.25,1883.32z"/>
<path opacity="0.1" enable-background="new    " d="M1176.67,1556.54c0.005,4.319-0.594,8.617-1.78,12.77
	c-1.94,1.76-5.29,1.78-7.68,0.47c-2.8-1.54-4.63-4.34-6.45-7c-1.82-2.66-3.89-5.32-6.87-6.46c-3.77-1.42-8.07,0-11.35,2.36
	c-3.28,2.36-5.9,5.48-9,8c-3.1,2.52-7.05,4.56-11,3.94c-2.55-0.39-4.81-1.83-7-3.22c-3-1.89-6.22-4.83-9.51-6.1s-6,1-9.13,1
	c-2.49,0.9-5.2,2.95-4.7,5.54c0.268,0.961,0.701,1.868,1.28,2.68c2.055,4.048,1.475,8.935-1.47,12.39
	c-14.597-21.103-9.323-50.043,11.78-64.64c21.103-14.597,50.043-9.323,64.64,11.78c5.372,7.767,8.25,16.986,8.25,26.429
	L1176.67,1556.54z"/>
<path fill="#794F6A" d="M1096.89,1560.95c-2.49,0.9-5.2,2.95-4.71,5.55c0.278,0.956,0.714,1.858,1.29,2.67
	c2.92,5.21,0.45,12.69-5,15.11c-0.854,0.445-1.83,0.599-2.78,0.44c-0.753-0.234-1.439-0.646-2-1.2
	c-2.931-2.62-4.952-6.105-5.77-9.95c-0.86-4-0.33-8.24-0.77-12.35c-0.44-4.11-1.85-8.16-2.34-12.3
	c-0.347-2.046-0.129-4.148,0.63-6.08c0.66-1.275,1.509-2.441,2.52-3.46c2.81-3.13,5.74-6.33,7.15-10.3c2.23-6.32,0.61-14.37,5.49-19
	c2.26-2.12,5.42-2.91,8.22-4.25c2.636-1.4,5.161-3.001,7.55-4.79c9.05-6.22,20.05-11,30.81-8.8c4.299,1.041,8.416,2.727,12.21,5
	c7.048,3.885,13.74,8.382,20,13.44c2.707,2.002,5.071,4.43,7,7.19c1.437,2.363,2.471,4.948,3.06,7.65
	c1.437,5.895,1.635,12.025,0.58,18c-1,5.86-3.27,11.55-3.36,17.5c0,2,0.16,4.16-0.87,5.88c-1.65,2.74-5.74,3-8.54,1.48
	c-2.8-1.52-4.63-4.34-6.44-7c-1.81-2.66-3.89-5.32-6.87-6.45c-3.77-1.43-8.07,0-11.35,2.35c-3.28,2.35-5.89,5.48-9,8
	s-7,4.56-11,3.94c-2.55-0.39-4.81-1.82-7-3.21c-3-1.9-6.22-4.84-9.5-6.1S1100.01,1560.95,1096.89,1560.95z"/>
<path fill="#AF7766" d="M1203.61,1633.27c0,0-51.73,47.86-41.18,71.79c10.55,23.93,57-18.3,57-18.3l16.56-38.32L1203.61,1633.27z"/>
<g opacity="0.1">
	<path d="M1088.45,1581.44c-0.851,0.445-1.823,0.599-2.77,0.44c-0.757-0.232-1.444-0.647-2-1.21c-2.931-2.617-4.955-6.098-5.78-9.94
		c-0.85-4.05-0.32-8.25-0.76-12.36c-0.44-4.11-1.86-8.15-2.34-12.3c0-0.2,0-0.41-0.05-0.62c-0.108,1.145-0.092,2.298,0.05,3.44
		c0.48,4.14,1.9,8.14,2.34,12.3c0.44,4.16-0.09,8.31,0.76,12.35c0.822,3.846,2.846,7.331,5.78,9.95c0.559,0.557,1.246,0.968,2,1.2
		c0.947,0.159,1.919,0.005,2.77-0.44c4.3-1.91,6.73-6.94,6.16-11.54C1094.186,1576.483,1091.862,1579.776,1088.45,1581.44z"/>
	<path d="M1179.96,1540.69c-1,5.86-3.27,11.55-3.35,17.5c0,2,0.16,4.16-0.88,5.88c-1.64,2.74-5.73,3-8.53,1.48
		c-2.8-1.52-4.63-4.33-6.45-7c-1.82-2.67-3.88-5.32-6.87-6.45c-3.76-1.42-8.06,0-11.34,2.36s-5.9,5.47-9,8s-7.05,4.56-11,3.95
		c-2.55-0.4-4.81-1.83-7-3.22c-3-1.9-6.22-4.83-9.5-6.1s-6,1-9.13,1c-2.49,0.91-5.2,2.95-4.72,5.56
		c0.061,0.282,0.152,0.557,0.27,0.82c0.98-1.707,2.57-2.979,4.45-3.56c3.12,0,5.88-2.24,9.13-1s6.53,4.2,9.5,6.1
		c2.17,1.39,4.43,2.82,7,3.21c4,0.62,7.92-1.39,11-3.94c3.08-2.55,5.73-5.7,9-8c3.27-2.3,7.58-3.78,11.34-2.35
		c3,1.13,5.06,3.82,6.87,6.45c1.81,2.63,3.65,5.42,6.45,7c2.8,1.58,6.89,1.26,8.53-1.48c1-1.72,0.85-3.87,0.88-5.88
		c0.08-5.95,2.32-11.64,3.35-17.5c0.528-3.01,0.742-6.066,0.64-9.12C1180.536,1536.509,1180.323,1538.611,1179.96,1540.69z"/>
</g>
<path opacity="0.1" enable-background="new    " d="M1141.67,1389.72c0,0-19,34.49,7,52.09s28.51,15.84,28.51,15.84
	s-0.36,4.22,0,5.28c0.36,1.06,7,3.51,7,3.51s8.09,13,19.7,18.66s13.73,19,13.73,19s0,4.58,6,8.8c6,4.22,10.62,16.54,10.62,16.54
	v11.27c0,1.76,2.11,7-2.46,7.56c-4.57,0.56-0.71,11.09-0.71,11.09s-4.92,6-3.87,8.8c1.05,2.8-2.11,8.44-2.11,8.44
	s-3.87,5.63-3.52,6.69c0.35,1.06-4.22,4.93-3.17,7.39c1.05,2.46-5.27,5.63-4.22,8.45c1.05,2.82-4.5,4.22-4.5,4.22l-15.21,35.2
	c0,0,32,7,40.26,24.63l40.34-73.91c0,0,22.52-55.25,23.23-58.77s-4.93-16.19-4.93-16.19l-27.45-50l-41.18-58.07
	C1224.73,1406.24,1192,1336.58,1141.67,1389.72z"/>
<path opacity="0.1" enable-background="new    " d="M1182.3,1404.27c0,0-49.44,17.35-23.4,34.95c26.04,17.6,28.51,15.83,28.51,15.83
	s-0.35,4.23,0,5.28c0.35,1.05,7,3.52,7,3.52s8.1,13,19.71,18.66c11.61,5.66,13.73,19,13.73,19s0,4.58,6,8.8
	c6,4.22,10.56,16.54,10.56,16.54v11.26c0,1.76,2.11,7-2.47,7.57c-4.58,0.57-0.7,11.09-0.7,11.09s-4.93,6-3.87,8.79
	c1.06,2.79-2.11,8.45-2.11,8.45s-3.87,5.63-3.52,6.69c0.35,1.06-4.23,4.93-3.17,7.39c1.06,2.46-5.28,5.63-4.22,8.45
	c1.06,2.82-4.51,4.22-4.51,4.22l-15.2,35.19c0,0,26.36,1.36,34.68,19l45.91-68.23c0,0,22.53-55.25,23.23-58.77
	s-4.91-16.23-4.91-16.23l-27.45-50l-62.62-36.12C1213.48,1425.6,1232.63,1351.12,1182.3,1404.27z"/>
<path fill="#12ADA9" d="M1144.49,1389.72c0,0-19,34.49,7,52.09s28.51,15.84,28.51,15.84s-0.35,4.22,0,5.28c0.35,1.06,7,3.51,7,3.51
	s8.1,13,19.71,18.66c11.61,5.66,13.73,19,13.73,19s0,4.58,6,8.8c6,4.22,10.61,16.54,10.61,16.54v11.27c0,1.76,2.11,7-2.47,7.56
	c-4.58,0.56-0.7,11.09-0.7,11.09s-4.93,6-3.87,8.8c1.06,2.8-2.11,8.44-2.11,8.44s-3.87,5.63-3.52,6.69
	c0.35,1.06-4.23,4.93-3.17,7.39c1.06,2.46-5.28,5.63-4.22,8.45c1.06,2.82-4.51,4.22-4.51,4.22l-15.2,35.2c0,0,31.94,7,40.25,24.63
	l40.34-73.91c0,0,22.53-55.25,23.23-58.77s-4.93-16.19-4.93-16.19l-27.45-50l-41.17-58.05
	C1227.55,1406.26,1194.81,1336.58,1144.49,1389.72z"/>
<g opacity="0.1">
	<path d="M936.62,1407.04c-0.37-4.371-1.311-8.674-2.8-12.8c-1.45-4-3.43-7.94-3.9-12.19c0-0.13,0-0.25,0-0.38
		c-0.105,1.064-0.105,2.136,0,3.2c0.47,4.25,2.45,8.16,3.9,12.19c1.489,4.123,2.43,8.423,2.8,12.79c0.14,1.64,0.2,3.3,0.22,5
		C936.87,1412.2,936.84,1409.61,936.62,1407.04z"/>
	<path d="M971.04,1450.86c-2.15,4.72-8.68,5.47-13.68,4.08c-8.659-2.481-15.6-8.969-18.66-17.44c-1.39-4.297-2.066-8.794-2-13.31
		c-0.06,5.51,0.15,10.95,2,16.12c3.059,8.474,10,14.965,18.66,17.45c5,1.38,11.53,0.64,13.68-4.09c0.91-2,0.82-4.32,0.78-6.6
		C971.802,1448.371,971.537,1449.657,971.04,1450.86z"/>
	<path d="M1068.2,1385.12c-0.43,3.2-1.7,6.8-4.75,7.87c-1.777,0.497-3.676,0.318-5.33-0.5c-5-2.18-9.45-7.44-14.79-6.17
		c-4.36,1-6.45,5.93-7.6,10.27c-0.834,2.742-1.196,5.606-1.07,8.47c0.191-1.914,0.549-3.808,1.07-5.66
		c1.15-4.33,3.24-9.23,7.6-10.27c5.34-1.26,9.75,4,14.79,6.17c1.652,0.826,3.552,1.007,5.33,0.51c3.05-1.07,4.32-4.67,4.75-7.88
		c0.275-2.044,0.375-4.109,0.3-6.17C1068.45,1382.88,1068.35,1384.01,1068.2,1385.12z"/>
	<path d="M1040.65,1425.86c-3,2.17-7.07-0.14-10.36-1.87c-3.52-1.85-8-3-11.35-0.87c-1.15,0.72-2.08,1.76-3.2,2.53
		c-2.305,1.426-5.039,1.992-7.72,1.6c-6.37-0.65-8.75-4.68-13.6-7.8c-3.56-2.29-11-3.27-13.12,1.43
		c-0.508,1.384-0.65,2.875-0.41,4.33c0.066-0.52,0.204-1.028,0.41-1.51c2.13-4.71,9.56-3.73,13.12-1.43
		c4.85,3.12,7.23,7.15,13.6,7.8c2.682,0.384,5.415-0.186,7.72-1.61c1.12-0.76,2.05-1.8,3.2-2.52c3.38-2.1,7.83-1,11.35,0.87
		c3.29,1.72,7.34,4,10.36,1.86c1.76-1.26,2.18-3.5,1.79-5.71C1042.235,1424.119,1041.594,1425.157,1040.65,1425.86z"/>
	<path d="M980.63,1430.72c-1.37,3.14-5.58,4-7.52,6.83c-1.45,2.1-1.33,4.72-1.28,7.35c-0.018-1.602,0.426-3.175,1.28-4.53
		c1.94-2.83,6.15-3.7,7.52-6.84c0.479-1.366,0.61-2.831,0.38-4.26C980.948,1429.768,980.821,1430.256,980.63,1430.72z"/>
</g>
</svg>
